<svg width="24" height="17" viewBox="0 0 24 17" fill="none" xmlns="http://www.w3.org/2000/svg">
<path d="M10.0608 5.66667C9.936 5.67044 9.816 5.72144 9.72768 5.81022L7.1952 8.29411L5.6352 6.76411C5.1984 6.31644 4.4928 7.00778 4.9488 7.43655L6.85248 9.30467C7.0416 9.49072 7.3488 9.49072 7.53888 9.30467L10.4141 6.48361C10.7309 6.18139 10.4976 5.66667 10.0618 5.66667H10.0608ZM18.72 12.2778C17.4 12.2778 16.32 13.3403 16.32 14.6389C16.32 15.9375 17.4 17 18.72 17C20.04 17 21.12 15.9375 21.12 14.6389C21.12 13.3403 20.04 12.2778 18.72 12.2778ZM18.72 13.2222C19.5206 13.2222 20.16 13.8512 20.16 14.6389C20.16 15.4266 19.5206 16.0556 18.72 16.0556C17.9194 16.0556 17.28 15.4266 17.28 14.6389C17.28 13.8512 17.9194 13.2222 18.72 13.2222ZM6.24 12.2778C4.92 12.2778 3.84 13.3403 3.84 14.6389C3.84 15.9375 4.92 17 6.24 17C7.56 17 8.64 15.9375 8.64 14.6389C8.64 13.3403 7.56 12.2778 6.24 12.2778ZM6.24 13.2222C7.04064 13.2222 7.68 13.8512 7.68 14.6389C7.68 15.4266 7.04064 16.0556 6.24 16.0556C5.43936 16.0556 4.8 15.4266 4.8 14.6389C4.8 13.8512 5.43936 13.2222 6.24 13.2222ZM1.44 0C0.65088 0 0 0.640333 0 1.41667V11.8056C0 12.5819 0.65088 13.2222 1.44 13.2222H3.36C4.00896 13.2317 4.00896 12.2683 3.36 12.2778H1.44C1.16544 12.2778 0.96 12.0757 0.96 11.8056V1.41667C0.96 1.14656 1.16544 0.944444 1.44 0.944444H13.92C14.1946 0.944444 14.4 1.14656 14.4 1.41667V12.2778H9.12C8.4864 12.2778 8.49792 13.2317 9.12 13.2222H15.84C16.4736 13.2222 16.4678 12.2778 15.84 12.2778H15.36V3.77778H19.4179L23.04 9.34622V11.8056C23.04 12.0757 22.8346 12.2778 22.56 12.2778H21.6C20.9722 12.2778 20.9722 13.2222 21.6 13.2222H22.56C23.3491 13.2222 24 12.5819 24 11.8056V9.20833C24 9.11861 23.9741 9.02889 23.9251 8.95333L20.0851 3.05055C19.9968 2.9155 19.8451 2.83333 19.68 2.83333H15.36V1.41667C15.36 0.640333 14.7091 0 13.92 0H1.44Z" fill="black"/>
</svg>
