<svg width="23" height="26" viewBox="0 0 23 26" fill="none" xmlns="http://www.w3.org/2000/svg">
<path d="M6.45366 9.28601C6.21618 9.28601 6.02344 9.50612 6.02344 9.77734C6.02344 10.0485 6.21618 10.2687 6.45366 10.2687C6.69114 10.2687 6.88388 10.0485 6.88388 9.77734C6.88388 9.50612 6.69114 9.28601 6.45366 9.28601Z" fill="#00001C"/>
<path d="M21.5972 21.2252H20.0484V2.45662C20.0484 1.10204 19.0834 0 17.8973 0H2.15111C0.964989 0 0 1.10204 0 2.45662V4.42192C0 4.69323 0.192654 4.91324 0.430223 4.91324H3.44178V22.6992C3.44178 24.0538 4.40677 25.1558 5.59289 25.1558H19.8763C21.0624 25.1558 22.0274 24.0538 22.0274 22.6992V21.7165C22.0274 21.4452 21.8347 21.2252 21.5972 21.2252ZM3.44178 3.93059H0.860445V2.45662C0.860445 1.64387 1.43944 0.982649 2.15111 0.982649C2.49564 0.982649 2.81968 1.13604 3.06357 1.41452C3.30747 1.6931 3.44178 2.06317 3.44178 2.45662V3.93059ZM6.88356 21.7165V22.6992C6.88356 23.5119 6.30457 24.1732 5.59289 24.1732C4.88122 24.1732 4.30223 23.5119 4.30223 22.6992V4.42192V2.45662C4.30223 1.91793 4.15096 1.40573 3.87179 0.982649H17.8973C18.6089 0.982649 19.1879 1.64387 19.1879 2.45662V21.2252H17.467V19.4902C18.016 18.9315 18.3275 18.1451 18.3275 17.2946C18.3275 15.6691 17.1695 14.3467 15.7461 14.3467C14.9834 14.3467 14.2972 14.7267 13.8242 15.3293H6.45334C6.21577 15.3293 6.02312 15.5493 6.02312 15.8206C6.02312 16.092 6.21577 16.312 6.45334 16.312H13.3128C13.2173 16.6195 13.1648 16.9501 13.1648 17.2946C13.1648 17.636 13.2154 17.9669 13.3109 18.2773H6.45334C6.21577 18.2773 6.02312 18.4973 6.02312 18.7686C6.02312 19.0399 6.21577 19.2599 6.45334 19.2599H13.595C13.6627 19.2599 13.7265 19.2415 13.7835 19.2098C13.8579 19.3086 13.9387 19.4021 14.0253 19.4902V21.2252H7.31378C7.07622 21.2252 6.88356 21.4452 6.88356 21.7165ZM15.7461 19.2599C15.3706 19.2599 15.0141 19.1242 14.715 18.8675C14.7145 18.8671 14.714 18.8667 14.7135 18.8663C14.2761 18.4912 14.0253 17.9184 14.0253 17.2946C14.0253 16.211 14.7972 15.3293 15.7461 15.3293C16.695 15.3293 17.467 16.211 17.467 17.2946C17.467 17.9185 17.2161 18.4914 16.7782 18.8668C16.4789 19.124 16.122 19.2599 15.7461 19.2599ZM16.6066 20.0747V22.3304L15.9848 21.857C15.8403 21.747 15.6521 21.747 15.5075 21.857L14.8857 22.3304V20.0747C15.1591 20.1851 15.4486 20.2426 15.7461 20.2426C16.0437 20.2426 16.3333 20.1852 16.6066 20.0747ZM21.167 22.6992C21.167 23.5119 20.588 24.1732 19.8763 24.1732H7.31262C7.58332 23.7623 7.74401 23.2518 7.74401 22.6992V22.2079H14.0253V23.2485C14.0253 23.4297 14.1126 23.5961 14.2525 23.6816C14.3924 23.7672 14.5621 23.7577 14.6941 23.6573L15.7461 22.8563L16.7982 23.6573C16.8701 23.7121 16.9534 23.7398 17.0369 23.7398C17.1064 23.7398 17.1762 23.7206 17.2398 23.6816C17.3797 23.5961 17.467 23.4296 17.467 23.2485V22.2079H21.167V22.6992Z" fill="#00001C"/>
<path d="M17.0369 9.28601H8.17436C7.93679 9.28601 7.74414 9.50603 7.74414 9.77734C7.74414 10.0486 7.93679 10.2687 8.17436 10.2687H17.0369C17.2745 10.2687 17.4672 10.0486 17.4672 9.77734C17.4672 9.50603 17.2745 9.28601 17.0369 9.28601Z" fill="#00001C"/>
<path d="M17.0371 12.3813H6.45366C6.21609 12.3813 6.02344 12.6014 6.02344 12.8727C6.02344 13.144 6.21609 13.364 6.45366 13.364H17.0371C17.2747 13.364 17.4674 13.144 17.4674 12.8727C17.4674 12.6014 17.2747 12.3813 17.0371 12.3813Z" fill="#00001C"/>
<path d="M17.0371 6.04333H6.45366C6.21609 6.04333 6.02344 6.26335 6.02344 6.53466C6.02344 6.80597 6.21609 7.02598 6.45366 7.02598H17.0371C17.2747 7.02598 17.4674 6.80597 17.4674 6.53466C17.4674 6.26335 17.2747 6.04333 17.0371 6.04333Z" fill="#00001C"/>
</svg>
