<svg width="24" height="25" viewBox="0 0 24 25" fill="none" xmlns="http://www.w3.org/2000/svg">
<path d="M6.09129 24.5597C6.07762 24.5597 6.06394 24.5588 6.05027 24.5571L1.41196 24.0715C1.40633 24.0715 1.4007 24.0706 1.39507 24.0698L0.361382 23.961C0.346098 23.9602 0.332422 23.9577 0.317943 23.9543H0.318747C0.234283 23.9357 0.160276 23.8885 0.103966 23.8253C0.103966 23.8244 0.103966 23.8244 0.103966 23.8244C0.103966 23.8244 0.103966 23.8244 0.103162 23.8236C0.103162 23.8236 0.103162 23.8236 0.102357 23.8228C0.102357 23.8228 0.102357 23.8228 0.101553 23.8219C0.101553 23.8219 0.101553 23.8219 0.101553 23.8211C0.0750069 23.7899 0.052483 23.7545 0.0355901 23.7157C0.0355901 23.7148 0.0355901 23.7148 0.0355901 23.7148V23.714H0.0347856C0.00904403 23.6524 -0.0038267 23.5841 0.000999844 23.5125L0.304268 18.628C0.310703 18.5252 0.353338 18.429 0.421714 18.3565L8.8384 9.59015C8.41688 7.35155 8.91482 5.04465 10.2196 3.22847C10.3547 3.04045 10.6065 3.00672 10.7827 3.145C10.9605 3.28497 10.9959 3.54888 10.8623 3.73522C9.65489 5.41564 9.2205 7.56571 9.67018 9.63315C9.70074 9.7748 9.65972 9.92404 9.56158 10.0261L1.09663 18.8422L0.828752 23.1634L1.28647 23.2115L10.3555 13.7056C10.432 13.6255 10.473 13.5193 10.473 13.4071C10.473 13.295 10.4312 13.1896 10.3555 13.1095C10.2035 12.9502 9.93885 12.9502 9.78682 13.1095L2.4915 20.7553C2.33463 20.9197 2.07963 20.9197 1.92277 20.7553C1.76591 20.5909 1.76591 20.3236 1.92277 20.1592L9.21809 12.5134C9.68787 12.021 10.4545 12.021 10.9243 12.5134C11.1519 12.7512 11.2774 13.0682 11.2774 13.4071C11.2774 13.7444 11.1519 14.0631 10.9243 14.3026L2.32096 23.3194L5.73493 23.6769L5.97546 21.4088C5.98591 21.3143 6.02614 21.225 6.09129 21.1575L8.08224 19.0698C8.15786 18.9906 8.26002 18.9467 8.36701 18.9467H9.90668L13.7406 14.9282C13.85 14.8144 14.0076 14.7756 14.1532 14.827C16.6341 15.6972 19.3225 15.0412 21.1662 13.1087C23.8313 10.3144 23.8313 5.7664 21.1662 2.973C18.7714 0.462897 14.9287 0.177065 12.2299 2.30521C12.0513 2.44602 11.7995 2.40808 11.6668 2.22174C11.5332 2.0354 11.5686 1.77149 11.7464 1.63152C14.767 -0.748729 19.0602 -0.427484 21.7357 2.37688C24.7153 5.49996 24.7153 10.5809 21.7357 13.7056C19.7343 15.8034 16.8456 16.5614 14.1379 15.7065L10.3596 19.6668C10.284 19.7461 10.1818 19.7899 10.0748 19.7899H8.53513L6.76218 21.6491L6.49351 24.1853C6.46776 24.3995 6.2932 24.5597 6.09129 24.5597ZM18.6041 8.60449C17.8833 8.60449 17.1626 8.31697 16.6132 7.74277C16.0814 7.18544 15.7886 6.4443 15.7886 5.65594C15.7886 4.86674 16.0814 4.12644 16.6132 3.56827C17.7112 2.42072 19.497 2.41904 20.5951 3.56827C21.6915 4.71919 21.6915 6.59101 20.5951 7.74193C20.0464 8.31697 19.3249 8.60449 18.6041 8.60449ZM17.1819 7.14666C17.9662 7.96874 19.2428 7.9679 20.0263 7.14666C20.8098 6.32457 20.8098 4.98647 20.0263 4.16523C19.2404 3.3423 17.9646 3.34314 17.1819 4.16523C16.3984 4.98647 16.3984 6.32457 17.1819 7.14666Z" fill="#00001C"/>
<path d="M1.43562 24.0723C1.33265 24.0723 1.22968 24.031 1.15085 23.9492C0.993987 23.7848 0.993987 23.5175 1.15085 23.3531L10.3551 13.7056C10.4315 13.6255 10.4725 13.5193 10.4725 13.4072C10.4725 13.295 10.4307 13.1896 10.3551 13.1095C10.1982 12.9451 9.9432 12.9451 9.78634 13.1095L2.49102 20.7553C2.33416 20.9198 2.07916 20.9198 1.92229 20.7553C1.76543 20.5909 1.76543 20.3236 1.92229 20.1592L9.21761 12.5134C9.6874 12.021 10.454 12.021 10.9238 12.5134C11.1514 12.7512 11.2769 13.0682 11.2769 13.4072C11.2769 13.7444 11.1514 14.0631 10.9238 14.3026L1.72038 23.9484C1.64155 24.031 1.53858 24.0723 1.43562 24.0723Z" fill="#00001C"/>
<path d="M10.7274 0.843164C10.9495 0.843164 11.1296 0.654415 11.1296 0.421582C11.1296 0.188749 10.9495 0 10.7274 0C10.5053 0 10.3252 0.188749 10.3252 0.421582C10.3252 0.654415 10.5053 0.843164 10.7274 0.843164Z" fill="#00001C"/>
<path d="M23.5985 14.3338C23.8206 14.3338 24.0007 14.145 24.0007 13.9122C24.0007 13.6794 23.8206 13.4906 23.5985 13.4906C23.3764 13.4906 23.1963 13.6794 23.1963 13.9122C23.1963 14.145 23.3764 14.3338 23.5985 14.3338Z" fill="#00001C"/>
<path d="M16.3577 18.128C15.9024 18.128 15.4423 18.0943 14.9934 18.0277C14.7738 17.9948 14.6202 17.7815 14.6515 17.5513C14.6829 17.322 14.884 17.1668 15.106 17.193C17.652 17.569 20.2865 16.7503 22.2179 14.9594C22.3828 14.8051 22.6362 14.8203 22.7859 14.9965C22.9331 15.171 22.917 15.4366 22.7505 15.5918C20.9856 17.2275 18.7155 18.128 16.3577 18.128Z" fill="#00001C"/>
<path d="M7.19819 9.80347C7.00111 9.80347 6.82896 9.65086 6.8008 9.44091C6.73726 8.97043 6.70508 8.48814 6.70508 8.01006C6.70508 5.47045 7.60603 3.04214 9.24143 1.17453C9.39266 1.00337 9.64766 0.992409 9.80935 1.14924C9.97265 1.30691 9.98391 1.57335 9.83348 1.74451C8.33484 3.45698 7.5095 5.68209 7.5095 8.01006C7.5095 8.44935 7.53927 8.89033 7.59718 9.32287C7.62856 9.55305 7.47572 9.76637 7.2553 9.79926C7.236 9.80179 7.2175 9.80347 7.19819 9.80347Z" fill="#00001C"/>
</svg>
