<svg width="22" height="18" viewBox="0 0 22 18" fill="none" xmlns="http://www.w3.org/2000/svg">
<path d="M16.5 12.2727C15.4917 12.2727 14.6667 13.1932 14.6667 14.3182C14.6667 15.4432 15.4917 16.3636 16.5 16.3636C16.9209 16.3636 17.2773 16.1624 17.6 15.8727C17.9227 16.1624 18.2791 16.3636 18.7 16.3636C19.7083 16.3636 20.5333 15.4432 20.5333 14.3182C20.5333 13.1932 19.7083 12.2727 18.7 12.2727C18.2791 12.2727 17.9227 12.4691 17.6 12.7595C17.2773 12.4691 16.9209 12.2735 16.5 12.2727ZM16.5 13.0909C16.8153 13.0909 17.116 13.2431 17.325 13.5082C17.4717 13.6923 17.7283 13.6923 17.875 13.5082C18.084 13.2431 18.3839 13.0909 18.7 13.0909C19.3116 13.0909 19.8 13.6358 19.8 14.3182C19.8 15.0005 19.3116 15.5455 18.7 15.5455C18.3847 15.5455 18.084 15.3933 17.875 15.1282C17.7283 14.9441 17.4717 14.9441 17.325 15.1282C17.116 15.3933 16.8161 15.5455 16.5 15.5455C15.8884 15.5455 15.4 15.0005 15.4 14.3182C15.4 13.6358 15.8884 13.0909 16.5 13.0909ZM11.3667 13.9091H12.8333C13.0365 13.9091 13.2 14.0915 13.2 14.3182C13.2 14.5448 13.0365 14.7273 12.8333 14.7273H11.3667C11.1635 14.7273 11 14.5448 11 14.3182C11 14.0915 11.1635 13.9091 11.3667 13.9091ZM8.43333 13.9091H9.9C10.1031 13.9091 10.2667 14.0915 10.2667 14.3182C10.2667 14.5448 10.1031 14.7273 9.9 14.7273H8.43333C8.2302 14.7273 8.06667 14.5448 8.06667 14.3182C8.06667 14.0915 8.2302 13.9091 8.43333 13.9091ZM5.5 13.9091H6.96667C7.1698 13.9091 7.33333 14.0915 7.33333 14.3182C7.33333 14.5448 7.1698 14.7273 6.96667 14.7273H5.5C5.29687 14.7273 5.13333 14.5448 5.13333 14.3182C5.13333 14.0915 5.29687 13.9091 5.5 13.9091ZM10.6333 9.81818H19.4333C19.6365 9.81818 19.8 10.0006 19.8 10.2273C19.8 10.4539 19.6365 10.6364 19.4333 10.6364H10.6333C10.4302 10.6364 10.2667 10.4539 10.2667 10.2273C10.2667 10.0006 10.4302 9.81818 10.6333 9.81818ZM14.3 7.36364H19.4333C19.6365 7.36364 19.8 7.54609 19.8 7.77273C19.8 7.99936 19.6365 8.18182 19.4333 8.18182H14.3C14.0969 8.18182 13.9333 7.99936 13.9333 7.77273C13.9333 7.54609 14.0969 7.36364 14.3 7.36364ZM10.6333 7.36364H12.8333C13.0365 7.36364 13.2 7.54609 13.2 7.77273C13.2 7.99936 13.0365 8.18182 12.8333 8.18182H10.6333C10.4302 8.18182 10.2667 7.99936 10.2667 7.77273C10.2667 7.54609 10.4302 7.36364 10.6333 7.36364ZM5.5 6.54545C5.2976 6.54545 5.13333 6.72873 5.13333 6.95455V11.0455C5.13333 11.2713 5.2976 11.4545 5.5 11.4545H8.43333C8.63573 11.4545 8.8 11.2713 8.8 11.0455V6.95455C8.8 6.72873 8.63573 6.54545 8.43333 6.54545H5.5ZM5.86667 7.36364H8.06667V10.6364H5.86667V7.36364ZM4.76667 4.90909C4.16387 4.90909 3.66667 5.46382 3.66667 6.13636V16.7727C3.66667 17.4453 4.16387 18 4.76667 18H20.9C21.5028 18 22 17.4453 22 16.7727V6.13636C22 5.46382 21.5028 4.90909 20.9 4.90909H4.76667ZM4.76667 5.72727H20.9C21.1097 5.72727 21.2667 5.90236 21.2667 6.13636V16.7727C21.2667 17.0067 21.1097 17.1818 20.9 17.1818H4.76667C4.55693 17.1818 4.4 17.0067 4.4 16.7727V6.13636C4.4 5.90236 4.55693 5.72727 4.76667 5.72727ZM1.1 0C0.4972 0 0 0.554727 0 1.22727V11.8636C0 12.5362 0.4972 13.0909 1.1 13.0909H2.56667C3.05947 13.0909 3.04553 12.2727 2.56667 12.2727H1.1C0.890267 12.2727 0.733333 12.0976 0.733333 11.8636V6.54545H1.83333C2.03647 6.54545 2.2 6.363 2.2 6.13636C2.2 5.90973 2.03647 5.72727 1.83333 5.72727H0.733333V3.27273H18.3333V3.68182C18.3333 4.23164 19.0667 4.21936 19.0667 3.68182V1.22727C19.0667 0.554727 18.5695 0 17.9667 0H1.1ZM1.1 0.818182H17.9667C18.1764 0.818182 18.3333 0.993273 18.3333 1.22727V2.45455H0.733333V1.22727C0.733333 0.993273 0.890267 0.818182 1.1 0.818182Z" fill="#00001C"/>
</svg>
