<svg width="26" height="38" viewBox="0 0 26 38" fill="none" xmlns="http://www.w3.org/2000/svg">
<path d="M10.1592 22.8253C7.80806 22.3025 5.70262 21.1234 4.04115 19.4858C1.33645 20.8128 0 22.7712 0 25.4718V34.6374C1.30011 35.2424 4.65031 36.604 9.3093 37.1017L8.22023 36.2307C7.87662 35.9565 7.71431 35.5121 7.80393 35.0813L10.1592 22.8253Z" fill="white"/>
<path d="M12.8936 20.7926C18.5859 20.7926 23.2184 16.1278 23.2184 10.3959C23.2184 4.66394 18.5859 0 12.8936 0C7.20459 0 2.57617 4.66394 2.57617 10.3959C2.57617 16.1278 7.20418 20.7926 12.8936 20.7926Z" fill="white"/>
<path d="M12.467 23.2285L10.2422 34.8502L12.9894 37.0469L15.7313 34.8518L13.4735 23.2285H12.467Z" fill="white"/>
<path d="M21.7585 19.478C20.1301 21.0866 18.0697 22.2488 15.7734 22.7886L18.17 35.0785C18.2605 35.5109 18.099 35.9552 17.7562 36.2311L16.7254 37.0555C19.5986 36.7127 22.7121 35.9619 25.9756 34.5944V25.4718C25.9756 22.7679 24.5809 20.807 21.7585 19.478Z" fill="white"/>
</svg>
